<?xml version="1.0" encoding="UTF-8" standalone="no"?><!DOCTYPE svg PUBLIC "-//W3C//DTD SVG 1.1//EN" "http://www.w3.org/Graphics/SVG/1.1/DTD/svg11.dtd"><svg width="100%" height="100%" viewBox="0 0 514 598" version="1.1" xmlns="http://www.w3.org/2000/svg" xmlns:xlink="http://www.w3.org/1999/xlink" xml:space="preserve" xmlns:serif="http://www.serif.com/" style="fill-rule:evenodd;clip-rule:evenodd;stroke-linecap:round;stroke-miterlimit:1;"><g id="Background"><g id="g14"><g id="g20"><g id="g22"><path id="path30" d="M9.988,439.446l-0,-282.332l246.843,-141.188l246.847,141.188l-0,282.332l-246.847,141.184l-246.843,-141.184Z" style="fill:url(#_Linear1);fill-rule:nonzero;"/></g></g></g><g><path d="M128.837,96.915c0,0 6.64,36.147 32.656,32.851c26.017,-3.295 37.475,-25.083 64.704,0c12.606,11.613 -13.299,72.876 26.041,72.878c9.67,0.001 22.064,2.424 31.003,4.066c20.583,3.779 34.503,14.403 39.501,17.303c35.382,20.525 20.772,63.215 -0,64.8c-42.213,3.221 -31.257,52.916 -80.709,14.651c-18.414,-14.248 -23.971,65.666 -15.836,71.817c40.621,30.711 58.26,-77.257 96.545,-17.273c27.145,42.531 -115.99,82.473 -115.99,82.473c-0,-0 -33.676,-30.968 -45.259,-31.952c-70.257,-5.965 -104.475,-0.247 -92.744,-33.248c11.731,-33.001 71.3,-142.015 39.433,-143.419c-31.868,-1.404 -34.549,-54.466 -52.818,-2.327c-18.269,52.139 -15.715,78.636 -19.907,84.236c-4.192,5.599 -7.186,-0 -7.186,-0l-10.381,-10.307l-6.439,-142.459l117.386,-64.09Z" style="fill:url(#_Linear2);"/></g><path d="M110.275,498.734c0,-0 29.586,1.85 29.201,-21.427c-0.385,-23.277 -78.476,-28.809 -0,-33.246c78.476,-4.438 94.371,3.035 102.349,10.941c7.979,7.906 15.006,14.868 15.006,14.868c-0,0 -1.614,12.947 -23.449,16.305c-15.234,2.342 -36.921,-23.3 -36.921,-23.3c-0,0 -13.037,-3.686 -10.303,14.942c2.733,18.627 49.714,59.883 61.379,49.844c11.664,-10.038 17.719,-37.9 32.949,-17.051c2.534,3.469 16.197,3.793 20.738,8.198c2.781,2.696 4.413,11.428 4.843,13.153c4.091,16.434 8.682,16.76 10.326,13.862l-15.169,3.614l0,7.956l-44.391,23.237l-146.558,-81.896" style="fill:url(#_Linear3);"/><g><path d="M160.89,405.012l7.004,6.955c1.932,1.919 1.932,5.035 -0,6.955l-20.89,20.743c-1.932,1.919 -5.07,1.919 -7.003,0l-7.004,-6.954c-1.932,-1.92 -1.932,-5.036 0,-6.955l20.89,-20.744c1.933,-1.919 5.071,-1.919 7.003,0Z"/><path d="M160.89,405.012l7.004,6.955c1.932,1.919 1.932,5.035 -0,6.955l-20.89,20.743c-1.932,1.919 -5.07,1.919 -7.003,0l-7.004,-6.954c-1.932,-1.92 -1.932,-5.036 0,-6.955l20.89,-20.744c1.933,-1.919 5.071,-1.919 7.003,0Zm-1.468,1.479c-1.122,-1.115 -2.945,-1.115 -4.067,-0l-20.89,20.743c-1.111,1.104 -1.111,2.895 0,3.998l7.004,6.955c1.122,1.115 2.945,1.115 4.067,0l20.89,-20.744c1.111,-1.103 1.111,-2.894 -0,-3.998l-7.004,-6.954Z"/><g><path d="M133.426,419.506l19.984,19.844c5.515,5.477 5.515,14.368 0.001,19.845l-35.765,35.515c-5.515,5.476 -14.469,5.476 -19.984,-0.001l-19.984,-19.844c-5.514,-5.476 -5.514,-14.368 0,-19.844l35.765,-35.515c5.514,-5.476 14.469,-5.476 19.983,-0Z"/><path d="M133.426,419.506l19.984,19.844c5.515,5.477 5.515,14.368 0.001,19.845l-35.765,35.515c-5.515,5.476 -14.469,5.476 -19.984,-0.001l-19.984,-19.844c-5.514,-5.476 -5.514,-14.368 0,-19.844l35.765,-35.515c5.514,-5.476 14.469,-5.476 19.983,-0Zm-1.468,1.478c-4.704,-4.671 -12.343,-4.672 -17.047,-0l-35.765,35.515c-4.693,4.66 -4.693,12.227 0,16.888l19.984,19.844c4.705,4.672 12.344,4.672 17.048,0l35.765,-35.515c4.693,-4.66 4.692,-12.227 -0.001,-16.887l-19.984,-19.845Z"/><path d="M79.539,453.173l39.968,39.689l-10.448,10.374l-39.968,-39.688l10.448,-10.375Z"/><path d="M79.539,453.173l39.968,39.689l-10.448,10.374l-39.968,-39.688l10.448,-10.375Zm-0,2.936l-7.491,7.439l37.011,36.752l7.491,-7.438l-37.011,-36.753Z"/></g><path d="M341.197,412.869c-49.98,50.146 -131.555,50.565 -182.054,0.935c-50.498,-49.631 -50.92,-130.637 -0.941,-180.783c49.979,-50.146 131.554,-50.565 182.053,-0.935c50.499,49.631 50.921,130.637 0.942,180.783Zm-7.255,-7.13c-46.017,46.17 -121.124,46.555 -167.618,0.86c-46.495,-45.695 -46.883,-120.278 -0.867,-166.448c46.016,-46.17 121.123,-46.555 167.618,-0.86c46.494,45.695 46.883,120.278 0.867,166.448Z"/><path d="M341.197,412.869c-49.98,50.146 -131.555,50.565 -182.054,0.935c-50.498,-49.631 -50.92,-130.637 -0.941,-180.783c49.979,-50.146 131.554,-50.565 182.053,-0.935c50.499,49.631 50.921,130.637 0.942,180.783Zm-1.476,-1.471c49.162,-49.326 48.747,-129.007 -0.926,-177.826c-49.685,-48.83 -129.944,-48.418 -179.117,0.92c-49.162,49.326 -48.747,129.007 0.926,177.826c49.684,48.83 129.944,48.418 179.117,-0.92Zm-4.304,-4.189c-46.822,46.979 -123.245,47.372 -170.554,0.876c-47.32,-46.506 -47.715,-122.414 -0.882,-169.404c46.823,-46.979 123.245,-47.372 170.554,-0.876c47.321,46.506 47.716,122.414 0.882,169.404Zm-1.475,-1.47c46.016,-46.17 45.627,-120.753 -0.867,-166.448c-46.495,-45.695 -121.602,-45.31 -167.618,0.86c-46.016,46.17 -45.628,120.753 0.867,166.448c46.494,45.695 121.601,45.31 167.618,-0.86Z"/></g><path d="M311.447,51.639l-26.153,13.768c0,0 -114.642,-41.307 -28.461,24.961c86.181,66.268 115.63,0.432 131.43,38.494c15.8,38.062 72.398,51.762 16.887,75.034c-55.51,23.271 -92.598,62.501 -38.489,110.081c54.11,47.58 91.923,76.94 94.534,66.75c2.611,-10.19 -0,-33.95 -0,-33.95c-0,-0 -7.448,-33.276 9.205,-32.8c16.654,0.476 33.278,19.719 33.278,19.719c-0,0 0.634,70.46 -26.189,69.165c-26.824,-1.295 -43.891,3.947 -58.543,-2.827c-14.652,-6.774 -28.37,-27.703 -41.76,-19.307c-13.39,8.396 -31.527,14.793 -19.428,41.176c12.099,26.384 32.402,52.377 47.392,55.404c14.99,3.026 29.378,-8.317 35.907,-10.4c6.529,-2.083 13.843,4.285 20.138,0c4.289,-2.919 26.084,-12.993 37.225,-25.336c5.209,-5.771 5.258,-19.668 5.258,-19.668l-0,-266.997l-192.231,-103.267Z" style="fill:url(#_Linear4);"/><path d="M64.641,130.284c-0.251,-0.825 0.215,-1.698 1.04,-1.949c0.826,-0.251 1.699,0.216 1.95,1.041l0.463,1.523c0.251,0.825 -0.214,1.699 -1.039,1.95c-0.825,0.252 -1.699,-0.214 -1.95,-1.039l-0.464,-1.526Zm3.323,10.677c-0.266,-0.821 0.185,-1.702 1.006,-1.968c0.82,-0.265 1.702,0.186 1.967,1.006c0.324,1.001 0.655,2.01 0.99,3.013c0.274,0.818 -0.168,1.704 -0.986,1.977c-0.818,0.274 -1.704,-0.168 -1.977,-0.986c-0.339,-1.012 -0.673,-2.032 -1,-3.042Zm4.295,12.123c-0.326,-0.799 0.058,-1.712 0.856,-2.037c0.799,-0.326 1.711,0.058 2.037,0.856c0.416,1.021 0.82,1.944 1.203,2.734l0.044,0.092c0.375,0.776 0.049,1.711 -0.727,2.086c-0.777,0.375 -1.712,0.049 -2.087,-0.727l-0.042,-0.087c-0.409,-0.844 -0.84,-1.829 -1.284,-2.917Zm6.596,11.595c-0.631,-0.588 -0.666,-1.577 -0.078,-2.208c0.588,-0.631 1.578,-0.666 2.208,-0.078c0.61,0.567 1.287,1.008 2.071,1.22c0.832,0.225 1.325,1.084 1.1,1.916c-0.225,0.833 -1.084,1.326 -1.916,1.101c-1.273,-0.344 -2.394,-1.028 -3.385,-1.951Zm13.316,2.616c-0.863,-0.002 -1.561,-0.704 -1.558,-1.567c0.002,-0.862 0.704,-1.56 1.567,-1.558c1.015,0.003 2.069,-0.006 3.149,-0.029c0.862,-0.018 1.577,0.667 1.595,1.53c0.018,0.862 -0.667,1.576 -1.529,1.595c-1.106,0.023 -2.185,0.032 -3.224,0.029Zm12.875,-0.555c-0.859,0.077 -1.619,-0.558 -1.696,-1.417c-0.077,-0.859 0.558,-1.619 1.417,-1.696c1.054,-0.094 2.099,-0.202 3.126,-0.323c0.856,-0.101 1.634,0.512 1.735,1.368c0.101,0.857 -0.512,1.634 -1.369,1.735c-1.055,0.125 -2.129,0.235 -3.213,0.333Zm12.846,-2.095c-0.831,0.232 -1.693,-0.255 -1.925,-1.085c-0.231,-0.831 0.255,-1.693 1.086,-1.925c1.049,-0.292 1.996,-0.612 2.811,-0.965c0.791,-0.342 1.712,0.023 2.054,0.815c0.342,0.791 -0.023,1.712 -0.814,2.054c-0.932,0.403 -2.013,0.772 -3.212,1.106Zm9.409,-9.625c-0.237,0.83 -1.103,1.31 -1.932,1.073c-0.829,-0.237 -1.31,-1.102 -1.073,-1.931c0.283,-0.99 0.531,-2.013 0.779,-3.028c0.205,-0.837 1.051,-1.351 1.889,-1.147c0.837,0.205 1.352,1.051 1.147,1.889c-0.258,1.054 -0.516,2.116 -0.81,3.144Zm4.086,-10.938c-0.658,0.557 -1.645,0.475 -2.202,-0.184c-0.557,-0.658 -0.474,-1.645 0.184,-2.202c0.321,-0.271 0.665,-0.514 1.034,-0.724c0.716,-0.409 1.495,-0.742 2.328,-1.006c0.822,-0.26 1.701,0.196 1.961,1.018c0.261,0.822 -0.196,1.701 -1.018,1.962c-0.615,0.194 -1.192,0.437 -1.721,0.739c-0.202,0.116 -0.39,0.249 -0.566,0.397Zm11.18,-1.699c-0.86,-0.066 -1.504,-0.818 -1.439,-1.678c0.066,-0.86 0.818,-1.504 1.678,-1.438c1.066,0.082 2.148,0.192 3.233,0.319c0.856,0.1 1.471,0.877 1.371,1.733c-0.101,0.857 -0.877,1.471 -1.734,1.371c-1.043,-0.122 -2.084,-0.229 -3.109,-0.307Zm12.619,1.513c-0.858,-0.086 -1.485,-0.853 -1.399,-1.711c0.086,-0.858 0.853,-1.485 1.711,-1.399c0.931,0.094 1.976,0.174 3.118,0.245c0.861,0.054 1.516,0.796 1.462,1.657c-0.054,0.86 -0.796,1.516 -1.657,1.462c-1.184,-0.074 -2.269,-0.157 -3.235,-0.254Zm12.832,0.663c-0.862,-0.029 -1.538,-0.752 -1.509,-1.614c0.028,-0.862 0.751,-1.538 1.613,-1.509l3.185,0.104c0.862,0.029 1.538,0.752 1.51,1.614c-0.028,0.861 -0.751,1.538 -1.613,1.51l-3.186,-0.105Zm12.719,0.467c-0.862,-0.04 -1.529,-0.772 -1.489,-1.633c0.04,-0.862 0.771,-1.529 1.633,-1.489c1.063,0.049 2.13,0.102 3.196,0.16c0.861,0.047 1.522,0.785 1.475,1.646c-0.047,0.861 -0.784,1.522 -1.646,1.475c-1.057,-0.058 -2.115,-0.111 -3.169,-0.159Zm12.639,0.851c-0.858,-0.083 -1.488,-0.847 -1.405,-1.705c0.083,-0.858 0.847,-1.488 1.705,-1.405c1.086,0.105 2.155,0.219 3.203,0.343c0.856,0.102 1.469,0.879 1.367,1.736c-0.101,0.856 -0.879,1.469 -1.735,1.367c-1.026,-0.121 -2.072,-0.233 -3.135,-0.336Zm12.369,1.907c-0.838,-0.204 -1.353,-1.05 -1.149,-1.888c0.204,-0.838 1.05,-1.353 1.887,-1.149c1.137,0.277 2.204,0.579 3.19,0.908c0.818,0.273 1.261,1.158 0.988,1.977c-0.273,0.818 -1.159,1.26 -1.977,0.987c-0.909,-0.303 -1.892,-0.58 -2.939,-0.835Zm9.016,5.481c-0.209,-0.837 0.301,-1.686 1.137,-1.894c0.837,-0.209 1.686,0.301 1.895,1.137c0.28,1.125 0.339,2.372 0.188,3.719c-0.096,0.857 -0.87,1.475 -1.727,1.379c-0.857,-0.096 -1.474,-0.87 -1.378,-1.727c0.106,-0.947 0.082,-1.823 -0.115,-2.614Zm-2.919,11.009c0.403,-0.762 1.349,-1.054 2.112,-0.65c0.762,0.403 1.053,1.349 0.65,2.111c-0.494,0.933 -1.031,1.883 -1.605,2.845c-0.442,0.741 -1.402,0.983 -2.143,0.542c-0.74,-0.442 -0.983,-1.402 -0.541,-2.143c0.546,-0.915 1.057,-1.818 1.527,-2.705Zm-6.757,10.535c0.507,-0.698 1.485,-0.852 2.183,-0.345c0.697,0.507 0.852,1.485 0.345,2.182c-0.627,0.863 -1.267,1.725 -1.916,2.583c-0.52,0.688 -1.5,0.825 -2.188,0.305c-0.688,-0.52 -0.825,-1.5 -0.305,-2.189c0.637,-0.842 1.265,-1.689 1.881,-2.536Zm-7.761,10.003c0.544,-0.669 1.529,-0.77 2.198,-0.226c0.669,0.544 0.77,1.529 0.226,2.198c-0.683,0.841 -1.36,1.666 -2.025,2.473c-0.548,0.666 -1.534,0.761 -2.199,0.213c-0.666,-0.548 -0.761,-1.534 -0.213,-2.199c0.66,-0.802 1.333,-1.623 2.013,-2.459Zm-8.094,9.818c0.554,-0.661 1.541,-0.747 2.201,-0.193c0.661,0.554 0.748,1.54 0.194,2.201c-0.692,0.824 -1.417,1.64 -2.173,2.447c-0.59,0.629 -1.579,0.661 -2.209,0.072c-0.629,-0.589 -0.661,-1.579 -0.072,-2.209c0.716,-0.764 1.404,-1.537 2.059,-2.318Zm-8.879,8.761c0.656,-0.56 1.643,-0.482 2.203,0.173c0.56,0.656 0.483,1.643 -0.173,2.203c-0.815,0.696 -1.642,1.385 -2.478,2.064c-0.669,0.544 -1.654,0.443 -2.198,-0.226c-0.544,-0.669 -0.443,-1.654 0.226,-2.198c0.816,-0.664 1.624,-1.336 2.42,-2.016Zm-9.934,7.809c0.693,-0.513 1.672,-0.367 2.185,0.326c0.513,0.693 0.367,1.672 -0.326,2.185c-0.865,0.641 -1.726,1.272 -2.577,1.893c-0.696,0.509 -1.674,0.356 -2.183,-0.34c-0.508,-0.697 -0.356,-1.675 0.341,-2.184c0.845,-0.617 1.7,-1.244 2.56,-1.88Zm-10.29,7.54c0.691,-0.517 1.671,-0.376 2.188,0.314c0.517,0.69 0.377,1.67 -0.313,2.187c-0.872,0.653 -1.71,1.292 -2.505,1.915c-0.679,0.532 -1.662,0.413 -2.194,-0.266c-0.532,-0.678 -0.413,-1.661 0.266,-2.193c0.813,-0.637 1.668,-1.289 2.558,-1.957Zm-9.922,8.114c0.665,-0.549 1.65,-0.455 2.199,0.21c0.55,0.665 0.456,1.65 -0.209,2.199c-0.811,0.67 -1.628,1.345 -2.435,2.028c-0.658,0.557 -1.645,0.475 -2.202,-0.183c-0.557,-0.659 -0.475,-1.645 0.183,-2.202c0.816,-0.691 1.644,-1.375 2.464,-2.052Zm-9.468,9.031c0.519,-0.688 1.5,-0.826 2.188,-0.307c0.689,0.519 0.827,1.5 0.308,2.188c-0.604,0.801 -1.116,1.61 -1.499,2.43c-0.364,0.782 -1.295,1.12 -2.076,0.755c-0.782,-0.364 -1.12,-1.295 -0.755,-2.076c0.47,-1.008 1.092,-2.006 1.834,-2.99Zm-2.665,13.286c-0.13,-0.852 0.455,-1.651 1.308,-1.781c0.852,-0.131 1.65,0.455 1.781,1.307c0.159,1.032 0.365,2.046 0.592,3.003c0.198,0.839 -0.321,1.682 -1.16,1.88c-0.839,0.199 -1.682,-0.32 -1.881,-1.16c-0.246,-1.035 -0.468,-2.132 -0.64,-3.249Zm7.536,10.621c-0.832,0.228 -1.692,-0.262 -1.92,-1.094c-0.228,-0.832 0.262,-1.692 1.094,-1.92c0.526,-0.144 1.026,-0.321 1.412,-0.456c0.813,-0.286 1.706,0.143 1.992,0.957c0.285,0.813 -0.144,1.706 -0.957,1.991c-0.443,0.156 -1.017,0.356 -1.621,0.522Z"/><g><path d="M304.941,319.777l-6.753,20.49c-0.089,0.269 -0.38,0.416 -0.649,0.329l-0.975,-0.317c-0.269,-0.088 -0.416,-0.377 -0.327,-0.646l6.753,-20.49c0.089,-0.269 0.379,-0.416 0.648,-0.329l0.976,0.317c0.269,0.088 0.416,0.377 0.327,0.646Z" style="fill:#a4a3a2;"/><path d="M315.039,309.662l-3.022,9.17c-0.648,1.965 -2.771,3.041 -4.739,2.402l-7.13,-2.317c-1.967,-0.64 -3.039,-2.754 -2.391,-4.719l3.022,-9.171c0.648,-1.965 2.771,-3.041 4.739,-2.401l7.13,2.317c1.967,0.639 3.039,2.754 2.391,4.719Z" style="fill:#0028a5;"/><path d="M315.039,309.662l-3.022,9.17c-0.648,1.965 -2.771,3.041 -4.739,2.402l-7.13,-2.317c-1.967,-0.64 -3.039,-2.754 -2.391,-4.719l3.022,-9.171c0.648,-1.965 2.771,-3.041 4.739,-2.401l7.13,2.317c1.967,0.639 3.039,2.754 2.391,4.719Zm-0.791,-0.261c0.503,-1.526 -0.329,-3.169 -1.858,-3.666l-7.13,-2.317c-1.532,-0.498 -3.185,0.34 -3.69,1.87l-3.022,9.17c-0.503,1.527 0.329,3.169 1.858,3.666l7.13,2.317c1.532,0.498 3.185,-0.34 3.69,-1.87l3.022,-9.17Z" style="fill:#fff;"/><g transform="matrix(0.952331,0.305065,-0.311251,0.944372,5.10489,-36.2003)"><g transform="matrix(12.3969,0,0,12.3969,398.139,245.659)"></g><text x="391.444px" y="245.659px" style="font-family:'Futura-Medium', 'Futura', sans-serif;font-weight:500;font-size:12.397px;fill:#fff;">P</text></g></g><path d="M296.854,341.753c-0,0 5.317,32.129 -0,39.975c-5.317,7.847 -27.275,-2.81 -36.737,0c-8.606,2.556 -25.003,25.546 -35.655,22.743c-10.294,-2.709 -15.204,-28.509 -22.86,-30.66c-47.946,-13.466 -64.044,-41.602 0,-68.763c14.347,-6.085 9.757,-35.651 5.183,-46.475c-4.575,-10.825 -32.63,-18.471 -32.63,-18.471" style="fill:none;stroke:#000;stroke-width:5px;stroke-dasharray:5,15,0,0,0,0;"/></g><g id="Border"><g id="g32"><path id="path34" d="M0,149.467l0,298.94l256.831,149.467l256.83,-149.467l0,-298.94l-256.83,-149.467l-256.831,149.467Zm19.976,287.273l-0,-275.606l236.855,-137.842l236.855,137.842l-0,275.606l-236.855,137.842l-236.855,-137.842Z" style="fill:#1892aa;fill-rule:nonzero;"/></g></g><g id="Bioconductor"><g id="g238"><g id="g240"><g id="text246" transform="matrix(0.868278,-0.496078,0.499565,0.862218,-246.827,203.684)"><g transform="matrix(16.7257,0,0,16.7257,425.377,561.245)"></g><text x="254.708px" y="561.245px" style="font-family:'Aller';font-size:16.726px;">www<tspan x="292.926px 296.957px " y="561.245px 561.245px ">.b</tspan>ioc<tspan x="329.037px 338.688px " y="561.245px 561.245px ">on</tspan>ductor<tspan x="396.308px 400.339px " y="561.245px 561.245px ">.o</tspan>rg</text></g></g></g></g><g id="Title"><g id="text36"><g transform="matrix(1,0,0,0.993021,0,1.31342)"><g transform="matrix(96.5068,0,0,96.5068,369.988,188.199)"></g><text x="137.89px" y="188.199px" style="font-family:'Aller-Bold', 'Aller';font-weight:700;font-size:96.507px;fill:#fff;">sosta</text></g></g></g><defs><linearGradient id="_Linear1" x1="0" y1="0" x2="1" y2="-0.00589411" gradientUnits="userSpaceOnUse" gradientTransform="matrix(-469.843,253.18,-254.96,-466.564,493.16,168.723)"><stop offset="0" style="stop-color:#c04498;stop-opacity:0.85"/><stop offset="1" style="stop-color:#85aae5;stop-opacity:0.85"/></linearGradient><linearGradient id="_Linear2" x1="0" y1="0" x2="1" y2="0.00605128" gradientUnits="userSpaceOnUse" gradientTransform="matrix(-110.617,-189.793,191.127,-109.845,258.294,377.37)"><stop offset="0" style="stop-color:#ffd75e;stop-opacity:1"/><stop offset="0.43" style="stop-color:#b0b752;stop-opacity:1"/><stop offset="1" style="stop-color:#006e37;stop-opacity:1"/></linearGradient><linearGradient id="_Linear3" x1="0" y1="0" x2="1" y2="0.00698964" gradientUnits="userSpaceOnUse" gradientTransform="matrix(-102.582,-94.9995,95.6671,-101.866,256.833,555.1)"><stop offset="0" style="stop-color:#17d2e0;stop-opacity:1"/><stop offset="1" style="stop-color:#df379a;stop-opacity:1"/></linearGradient><linearGradient id="_Linear4" x1="0" y1="0" x2="1" y2="0.00329859" gradientUnits="userSpaceOnUse" gradientTransform="matrix(87.5879,345.138,-347.564,86.9766,354.405,89.1337)"><stop offset="0" style="stop-color:#f73f18;stop-opacity:1"/><stop offset="1" style="stop-color:#5cb4ff;stop-opacity:1"/></linearGradient></defs></svg>